<!DOCTYPE svg PUBLIC "-//W3C//DTD SVG 1.1//EN" "http://www.w3.org/Graphics/SVG/1.1/DTD/svg11.dtd">
<!-- Uploaded to: SVG Repo, www.svgrepo.com, Transformed by: SVG Repo Mixer Tools -->
<svg height="800px" width="800px" version="1.1" id="Layer_1" xmlns="http://www.w3.org/2000/svg" xmlns:xlink="http://www.w3.org/1999/xlink" viewBox="0 0 512.001 512.001" xml:space="preserve" fill="#000000">
<g id="SVGRepo_bgCarrier" stroke-width="0"/>
<g id="SVGRepo_tracerCarrier" stroke-linecap="round" stroke-linejoin="round"/>
<g id="SVGRepo_iconCarrier"> <path style="fill:#FEF2CC;" d="M511.929,261.678c0.041-1.888,0.072-3.779,0.072-5.677C512,114.616,397.385,0.001,256,0.001 c-141.384,0-256,114.616-256,256c0,121.469,84.6,223.177,198.092,249.422L511.929,261.678z"/> <path style="fill:#FDE59A;" d="M511.929,261.678L305.183,54.933L75.943,383.274l122.149,122.149 c18.608,4.303,37.993,6.578,57.908,6.578C395.488,512.001,508.908,400.44,511.929,261.678z"/> <path style="fill:#263230;" d="M448.757,300.478c11.531,19.99,12.399,45.401,0.033,66.827c-12.377,21.426-34.816,33.38-57.889,33.38 H256l-44.522-183.647L256,33.392c24.732,0,46.314,13.457,57.856,33.436L448.757,300.478z"/> <path style="fill:#4C6460;" d="M256,33.392v367.293H121.099c-23.073,0-45.512-11.954-57.889-33.38 c-12.366-21.426-11.498-46.837,0.033-66.827l134.901-233.65C209.686,46.849,231.268,33.392,256,33.392z"/> <path style="fill:#F9BE02;" d="M419.84,317.175L284.938,83.533c-5.964-10.331-17.052-16.75-28.938-16.75l-33.391,150.255 L256,367.294h134.901c11.93,0,23.026-6.391,28.961-16.686C425.805,340.319,425.795,327.504,419.84,317.175z"/> <path style="fill:#FBD867;" d="M256,66.783c-11.885,0-22.974,6.416-28.938,16.74L92.172,317.172 c-5.964,10.333-5.977,23.145-0.031,33.442c5.933,10.288,17.028,16.679,28.958,16.679H256V66.783z"/> <polygon style="fill:#263230;" points="256.001,217.038 233.74,233.734 256.001,250.43 256.001,342.357 328.349,217.038 "/> <polygon style="fill:#4C6460;" points="256.001,250.43 256.001,125.111 183.653,250.43 "/> </g>
</svg>